<svg width="1280" height="800" viewBox="0 0 1280 800" fill="none" xmlns="http://www.w3.org/2000/svg"><rect width="1280" height="800" fill="#F4F1EA"/><rect x="92" y="72" width="1096" height="656" rx="44" fill="#191919"/><rect x="136" y="116" width="1008" height="568" rx="32" fill="#F7F3EA"/><rect x="186" y="164" width="380" height="94" rx="24" fill="#241F1C"/><rect x="610" y="164" width="382" height="94" rx="24" fill="#E5DACB"/><rect x="1018" y="164" width="80" height="94" rx="24" fill="#B18657"/><text x="222" y="223" fill="#F7F3EA" font-family="Inter, Arial, sans-serif" font-size="34" font-weight="700">Big Five Prediction</text><text x="642" y="222" fill="#3B322C" font-family="Inter, Arial, sans-serif" font-size="28" font-weight="600">Thesis model</text><g opacity=".92"><rect x="186" y="318" width="122" height="96" rx="22" fill="#DDB48B"/><rect x="328" y="318" width="122" height="96" rx="22" fill="#AFC3B8"/><rect x="470" y="318" width="122" height="96" rx="22" fill="#C6B7DA"/><rect x="612" y="318" width="122" height="96" rx="22" fill="#94A8C8"/><rect x="754" y="318" width="122" height="96" rx="22" fill="#D0C07F"/></g><g stroke="#1F1C1A" stroke-width="4" stroke-linecap="round"><path d="M246 510C319 474 391 551 465 516C540 481 599 407 685 454C768 500 837 582 927 516C1007 458 1057 474 1093 499"/><path d="M246 572C319 536 391 613 465 578C540 543 599 469 685 516C768 562 837 644 927 578C1007 520 1057 536 1093 561" opacity=".35"/></g><g fill="#1F1C1A"><circle cx="246" cy="510" r="10"/><circle cx="465" cy="516" r="10"/><circle cx="685" cy="454" r="10"/><circle cx="927" cy="516" r="10"/><circle cx="1093" cy="499" r="10"/></g><g opacity=".72"><rect x="186" y="624" width="246" height="18" rx="9" fill="#75685D"/><rect x="456" y="624" width="186" height="18" rx="9" fill="#75685D"/><rect x="668" y="624" width="310" height="18" rx="9" fill="#75685D"/></g></svg>
