<svg width="1280" height="800" viewBox="0 0 1280 800" fill="none" xmlns="http://www.w3.org/2000/svg"><rect width="1280" height="800" fill="#0B0A18"/><circle cx="242" cy="142" r="260" fill="#6D28D9" opacity=".28"/><circle cx="1060" cy="610" r="310" fill="#0EA5E9" opacity=".18"/><rect x="112" y="84" width="1056" height="632" rx="48" fill="#111225" stroke="#2B2B55" stroke-width="2"/><rect x="176" y="150" width="410" height="500" rx="34" fill="#090A13"/><rect x="222" y="204" width="202" height="20" rx="10" fill="#A78BFA"/><g fill="#334155"><rect x="222" y="268" width="284" height="14" rx="7"/><rect x="222" y="306" width="214" height="14" rx="7"/><rect x="222" y="344" width="310" height="14" rx="7"/><rect x="222" y="382" width="186" height="14" rx="7"/><rect x="222" y="420" width="260" height="14" rx="7"/></g><text x="222" y="522" fill="#E0E7FF" font-family="Inter, Arial, sans-serif" font-size="44" font-weight="760">0101</text><text x="222" y="574" fill="#38BDF8" font-family="Inter, Arial, sans-serif" font-size="44" font-weight="760">1010</text><rect x="654" y="150" width="448" height="224" rx="34" fill="#F8FAFC"/><rect x="704" y="206" width="242" height="18" rx="9" fill="#111827"/><rect x="704" y="256" width="318" height="14" rx="7" fill="#94A3B8"/><rect x="704" y="292" width="212" height="14" rx="7" fill="#CBD5E1"/><rect x="654" y="426" width="448" height="224" rx="34" fill="#17172D"/><path d="M716 548C766 494 824 600 884 540C944 480 1002 542 1040 500" stroke="#38BDF8" stroke-width="12" stroke-linecap="round"/><circle cx="716" cy="548" r="12" fill="#A78BFA"/><circle cx="884" cy="540" r="12" fill="#A78BFA"/><circle cx="1040" cy="500" r="12" fill="#A78BFA"/></svg>
