<svg width="1280" height="800" viewBox="0 0 1280 800" fill="none" xmlns="http://www.w3.org/2000/svg"><rect width="1280" height="800" fill="#F8FAFC"/><rect x="92" y="72" width="1096" height="656" rx="48" fill="#111827"/><rect x="142" y="122" width="996" height="556" rx="34" fill="#F9FAFB"/><text x="544" y="232" fill="#16A34A" font-family="Inter, Arial, sans-serif" font-size="64" font-weight="780">WM</text><rect x="458" y="292" width="364" height="270" rx="36" fill="#FFFFFF" stroke="#E5E7EB" stroke-width="2"/><rect x="520" y="354" width="240" height="28" rx="14" fill="#E5E7EB"/><rect x="560" y="418" width="160" height="54" rx="20" fill="#111827"/><text x="596" y="453" fill="#FFFFFF" font-family="Inter, Arial, sans-serif" font-size="20" font-weight="700">Start</text><path d="M294 470C348 370 432 366 492 426" stroke="#16A34A" stroke-width="12" stroke-linecap="round"/><path d="M986 470C932 370 848 366 788 426" stroke="#F59E0B" stroke-width="12" stroke-linecap="round"/><g fill="#CBD5E1"><circle cx="312" cy="574" r="22"/><circle cx="374" cy="574" r="22"/><circle cx="436" cy="574" r="22"/><circle cx="844" cy="574" r="22"/><circle cx="906" cy="574" r="22"/><circle cx="968" cy="574" r="22"/></g></svg>
