<svg width="1280" height="800" viewBox="0 0 1280 800" fill="none" xmlns="http://www.w3.org/2000/svg"><rect width="1280" height="800" fill="#F6F8FB"/><rect x="98" y="76" width="1084" height="648" rx="46" fill="#111827"/><rect x="142" y="120" width="996" height="560" rx="34" fill="#FFFFFF"/><rect x="178" y="156" width="214" height="488" rx="28" fill="#F1F5F9"/><rect x="214" y="210" width="110" height="18" rx="9" fill="#2563EB"/><rect x="214" y="258" width="126" height="14" rx="7" fill="#94A3B8"/><rect x="214" y="300" width="92" height="14" rx="7" fill="#CBD5E1"/><rect x="214" y="342" width="142" height="14" rx="7" fill="#CBD5E1"/><rect x="444" y="156" width="588" height="64" rx="22" fill="#F8FAFC" stroke="#E2E8F0" stroke-width="2"/><rect x="488" y="180" width="282" height="16" rx="8" fill="#CBD5E1"/><circle cx="994" cy="188" r="18" fill="#2563EB"/><rect x="444" y="272" width="260" height="142" rx="28" fill="#EFF6FF"/><rect x="744" y="272" width="260" height="142" rx="28" fill="#F0FDF4"/><rect x="444" y="456" width="260" height="142" rx="28" fill="#FFF7ED"/><rect x="744" y="456" width="260" height="142" rx="28" fill="#FAF5FF"/><g fill="#0F172A"><rect x="488" y="314" width="132" height="18" rx="9"/><rect x="788" y="314" width="144" height="18" rx="9"/><rect x="488" y="498" width="120" height="18" rx="9"/><rect x="788" y="498" width="128" height="18" rx="9"/></g><g fill="#64748B"><rect x="488" y="354" width="174" height="12" rx="6"/><rect x="788" y="354" width="150" height="12" rx="6"/><rect x="488" y="538" width="160" height="12" rx="6"/><rect x="788" y="538" width="176" height="12" rx="6"/></g><path d="M484 638C558 594 642 644 714 606C786 568 866 562 974 620" stroke="#2563EB" stroke-width="10" stroke-linecap="round"/></svg>
