<svg width="1280" height="800" viewBox="0 0 1280 800" fill="none" xmlns="http://www.w3.org/2000/svg">
  <rect width="1280" height="800" fill="#0B0A08"/>
  <rect x="94" y="70" width="1092" height="660" rx="52" fill="#1B140F"/>
  <rect x="142" y="118" width="996" height="564" rx="36" fill="#F7F0E5"/>
  <rect x="188" y="164" width="904" height="204" rx="34" fill="#3A2A4F"/>
  <path d="M188 294C294 214 386 352 498 274C608 198 720 174 842 244C944 302 1018 282 1092 222V368H188V294Z" fill="#8C6FB8"/>
  <text x="256" y="280" fill="#FFF8EA" font-family="Inter, Arial, sans-serif" font-size="72" font-weight="760" letter-spacing="6">SELF</text>
  <text x="256" y="332" fill="#E8DCFF" font-family="Inter, Arial, sans-serif" font-size="26" font-weight="520">psyche &amp; assessments</text>
  <g>
    <rect x="220" y="430" width="148" height="150" rx="28" fill="#FFFFFF"/>
    <rect x="400" y="430" width="148" height="150" rx="28" fill="#FFFFFF"/>
    <rect x="580" y="430" width="148" height="150" rx="28" fill="#FFFFFF"/>
    <rect x="760" y="430" width="148" height="150" rx="28" fill="#FFFFFF"/>
    <rect x="940" y="430" width="148" height="150" rx="28" fill="#FFFFFF"/>
  </g>
  <g fill="#2D2138">
    <rect x="254" y="514" width="80" height="14" rx="7"/>
    <rect x="434" y="486" width="80" height="14" rx="7"/>
    <rect x="614" y="538" width="80" height="14" rx="7"/>
    <rect x="794" y="468" width="80" height="14" rx="7"/>
    <rect x="974" y="506" width="80" height="14" rx="7"/>
  </g>
  <g fill="#7C5BB0">
    <circle cx="294" cy="474" r="24"/>
    <circle cx="474" cy="534" r="24"/>
    <circle cx="654" cy="486" r="24"/>
    <circle cx="834" cy="534" r="24"/>
    <circle cx="1014" cy="474" r="24"/>
  </g>
</svg>
