<svg width="1280" height="800" viewBox="0 0 1280 800" fill="none" xmlns="http://www.w3.org/2000/svg">
  <rect width="1280" height="800" fill="#F3EFE8"/>
  <rect x="88" y="70" width="1104" height="660" rx="48" fill="#2A1B12"/>
  <rect x="132" y="114" width="1008" height="572" rx="34" fill="#F8F4EC"/>
  <rect x="174" y="158" width="280" height="484" rx="32" fill="#E7D5BE"/>
  <rect x="204" y="194" width="220" height="304" rx="26" fill="#362317"/>
  <rect x="228" y="220" width="172" height="230" rx="20" fill="#9C744B"/>
  <rect x="248" y="244" width="132" height="72" rx="14" fill="#D7B98D"/>
  <rect x="248" y="336" width="58" height="84" rx="14" fill="#5B3925"/>
  <rect x="322" y="336" width="58" height="84" rx="14" fill="#6D482D"/>
  <circle cx="314" cy="540" r="34" fill="#FFFFFF"/>
  <circle cx="314" cy="540" r="15" fill="#C85B32"/>
  <text x="228" y="590" fill="#3A281D" font-family="Inter, Arial, sans-serif" font-size="27" font-weight="700">Owner video</text>
  <rect x="500" y="158" width="280" height="210" rx="32" fill="#FFFFFF" stroke="#E3D7C8" stroke-width="2"/>
  <rect x="532" y="198" width="92" height="28" rx="14" fill="#B07A43"/>
  <rect x="640" y="198" width="104" height="28" rx="14" fill="#D4C3A8"/>
  <rect x="532" y="252" width="204" height="16" rx="8" fill="#3B2A20"/>
  <rect x="532" y="286" width="154" height="16" rx="8" fill="#88715E"/>
  <rect x="532" y="322" width="210" height="16" rx="8" fill="#CBBBA6"/>
  <text x="532" y="410" fill="#3A281D" font-family="Inter, Arial, sans-serif" font-size="28" font-weight="700">AI categories</text>
  <g>
    <rect x="820" y="158" width="276" height="484" rx="32" fill="#191512"/>
    <rect x="854" y="202" width="208" height="128" rx="26" fill="#C9A36F"/>
    <rect x="884" y="232" width="98" height="18" rx="9" fill="#FFF5E8"/>
    <rect x="884" y="268" width="142" height="14" rx="7" fill="#6A4D34"/>
    <rect x="854" y="366" width="208" height="58" rx="22" fill="#F8F4EC"/>
    <rect x="880" y="388" width="120" height="14" rx="7" fill="#2A1B12"/>
    <rect x="854" y="446" width="208" height="58" rx="22" fill="#F8F4EC"/>
    <rect x="880" y="468" width="154" height="14" rx="7" fill="#2A1B12"/>
    <rect x="854" y="526" width="208" height="58" rx="22" fill="#F8F4EC"/>
    <rect x="880" y="548" width="102" height="14" rx="7" fill="#2A1B12"/>
  </g>
  <path d="M456 396C508 396 508 396 560 396" stroke="#B07A43" stroke-width="12" stroke-linecap="round"/>
  <path d="M770 396C824 396 824 396 878 396" stroke="#B07A43" stroke-width="12" stroke-linecap="round"/>
  <text x="532" y="486" fill="#6F5845" font-family="Inter, Arial, sans-serif" font-size="22" font-weight="600">quiet focus</text>
  <text x="532" y="530" fill="#6F5845" font-family="Inter, Arial, sans-serif" font-size="22" font-weight="600">shared life</text>
  <text x="532" y="574" fill="#6F5845" font-family="Inter, Arial, sans-serif" font-size="22" font-weight="600">modern / classic</text>
  <text x="866" y="626" fill="#F8F4EC" font-family="Inter, Arial, sans-serif" font-size="28" font-weight="700">Student match</text>
</svg>
